<svg xmlns="http://www.w3.org/2000/svg" width="18" height="18" viewBox="0 0 18 18" fill="none">
  <path d="M9.7498 4.0498C9.7498 3.85089 9.67079 3.66013 9.53013 3.51947C9.38948 3.37882 9.19872 3.2998 8.9998 3.2998C8.80089 3.2998 8.61013 3.37882 8.46947 3.51947C8.32882 3.66013 8.2498 3.85089 8.2498 4.0498V8.2498H4.0498C3.85089 8.2498 3.66013 8.32882 3.51947 8.46947C3.37882 8.61013 3.2998 8.80089 3.2998 8.9998C3.2998 9.19872 3.37882 9.38948 3.51947 9.53013C3.66013 9.67079 3.85089 9.7498 4.0498 9.7498H8.2498V13.9498C8.2498 14.1487 8.32882 14.3395 8.46947 14.4801C8.61013 14.6208 8.80089 14.6998 8.9998 14.6998C9.19872 14.6998 9.38948 14.6208 9.53013 14.4801C9.67079 14.3395 9.7498 14.1487 9.7498 13.9498V9.7498H13.9498C14.1487 9.7498 14.3395 9.67079 14.4801 9.53013C14.6208 9.38948 14.6998 9.19872 14.6998 8.9998C14.6998 8.80089 14.6208 8.61013 14.4801 8.46947C14.3395 8.32882 14.1487 8.2498 13.9498 8.2498H9.7498V4.0498Z" fill="white"/>
</svg>