<svg width="18" height="18" viewBox="0 0 18 18" fill="none" xmlns="http://www.w3.org/2000/svg">
<g id="Frame">
<g id="Group">
<g id="Layer 2">
<path id="Vector" d="M8.99976 16.725C7.64793 16.7337 6.31612 16.3982 5.12976 15.75C5.106 15.7401 5.08051 15.735 5.05476 15.735C5.02902 15.735 5.00353 15.7401 4.97976 15.75L2.33226 16.5C2.17023 16.5516 1.99716 16.5577 1.83187 16.5178C1.66658 16.4779 1.51541 16.3934 1.39479 16.2735C1.27416 16.1537 1.18871 16.0031 1.14771 15.838C1.10672 15.673 1.11175 15.4999 1.16226 15.3375L1.95726 12.675C1.97453 12.6291 1.97453 12.5785 1.95726 12.5325C1.14419 11.0465 0.819825 9.3421 1.0302 7.66128C1.24058 5.98046 1.97502 4.4086 3.12927 3.1688C4.28352 1.92899 5.79894 1.08423 7.46046 0.754408C9.12197 0.424587 10.8452 0.626466 12.3855 1.33139C13.9257 2.03631 15.2049 3.20847 16.0413 4.68149C16.8778 6.15451 17.229 7.85356 17.0452 9.53749C16.8614 11.2214 16.1518 12.8047 15.0173 14.0626C13.8828 15.3204 12.3809 16.189 10.7248 16.545C10.1573 16.663 9.57936 16.7233 8.99976 16.725ZM5.03226 14.5725C5.25493 14.5756 5.47358 14.6322 5.66976 14.7375C6.64035 15.2698 7.72421 15.5621 8.83081 15.59C9.93742 15.6179 11.0346 15.3806 12.0308 14.8979C13.027 14.4152 13.8932 13.7011 14.5571 12.8154C15.2209 11.9296 15.6632 10.8978 15.8469 9.80617C16.0307 8.71457 15.9505 7.59485 15.6132 6.54055C15.2758 5.48624 14.6911 4.52797 13.9078 3.74577C13.1246 2.96358 12.1655 2.38017 11.1107 2.04429C10.0559 1.7084 8.93611 1.6298 7.84476 1.81503C6.75131 1.9967 5.71746 2.43828 4.83018 3.10265C3.9429 3.76702 3.22813 4.63474 2.74599 5.63283C2.26385 6.63093 2.02843 7.73021 2.05954 8.83821C2.09065 9.94622 2.38738 11.0306 2.92476 12C3.00926 12.1531 3.0627 12.3213 3.082 12.4951C3.10131 12.6688 3.08611 12.8447 3.03726 13.0125L2.33976 15.33L4.65726 14.6325C4.77864 14.5942 4.905 14.574 5.03226 14.5725Z" fill="#15211F" fill-opacity="0.7"/>
<path id="Vector_2" d="M6 9.9375C6.51777 9.9375 6.9375 9.51777 6.9375 9C6.9375 8.48223 6.51777 8.0625 6 8.0625C5.48223 8.0625 5.0625 8.48223 5.0625 9C5.0625 9.51777 5.48223 9.9375 6 9.9375Z" fill="#15211F" fill-opacity="0.7"/>
<path id="Vector_3" d="M9 9.9375C9.51777 9.9375 9.9375 9.51777 9.9375 9C9.9375 8.48223 9.51777 8.0625 9 8.0625C8.48223 8.0625 8.0625 8.48223 8.0625 9C8.0625 9.51777 8.48223 9.9375 9 9.9375Z" fill="#15211F" fill-opacity="0.7"/>
<path id="Vector_4" d="M12 9.9375C12.5178 9.9375 12.9375 9.51777 12.9375 9C12.9375 8.48223 12.5178 8.0625 12 8.0625C11.4822 8.0625 11.0625 8.48223 11.0625 9C11.0625 9.51777 11.4822 9.9375 12 9.9375Z" fill="#15211F" fill-opacity="0.7"/>
</g>
</g>
</g>
</svg>
