<svg xmlns="http://www.w3.org/2000/svg" width="28" height="28" viewBox="0 0 28 28" fill="none">
  <g clip-path="url(#clip0_28_696)">
    <path d="M19.2492 0C17.7564 0.10325 16.0117 1.05875 14.9949 2.303C14.0674 3.43175 13.3044 5.10825 13.6019 6.7375C15.2329 6.78825 16.9182 5.81 17.8947 4.54475C18.8082 3.367 19.4994 1.701 19.2492 0Z" fill="black"/>
    <path d="M25.1482 9.57949C23.715 7.78225 21.7007 6.73926 19.7985 6.73926C17.2872 6.73926 16.225 7.9415 14.4803 7.9415C12.6813 7.9415 11.3145 6.74276 9.14279 6.74276C7.00956 6.74276 4.73807 8.0465 3.29783 10.276C1.27309 13.4155 1.61959 19.3182 4.90082 24.3459C6.07506 26.1449 7.64305 28.1679 9.69404 28.1854C11.5193 28.2029 12.0338 27.0146 14.5065 27.0024C16.9792 26.9884 17.4482 28.2011 19.27 28.1819C21.3227 28.1661 22.9765 25.9244 24.1507 24.1254C24.9925 22.8357 25.3057 22.1864 25.9584 20.7304C21.2107 18.9227 20.4495 12.1712 25.1482 9.57949Z" fill="black"/>
  </g>
  <defs>
    <clipPath id="clip0_28_696">
      <rect width="28" height="28" fill="white"/>
    </clipPath>
  </defs>
</svg>