<svg xmlns="http://www.w3.org/2000/svg" width="24" height="24" viewBox="0 0 24 24" fill="none">
  <path d="M4.95101 13.1179C5.34221 13.1179 5.65934 12.8008 5.65934 12.4096C5.65934 12.0184 5.34221 11.7012 4.95101 11.7012C4.55981 11.7012 4.24268 12.0184 4.24268 12.4096C4.24268 12.8008 4.55981 13.1179 4.95101 13.1179Z" fill="#E31D35"/>
  <path d="M8.493 13.1179C8.8842 13.1179 9.20133 12.8008 9.20133 12.4096C9.20133 12.0184 8.8842 11.7012 8.493 11.7012C8.1018 11.7012 7.78467 12.0184 7.78467 12.4096C7.78467 12.8008 8.1018 13.1179 8.493 13.1179Z" fill="#E31D35"/>
  <path d="M12.0345 13.1179C12.4257 13.1179 12.7428 12.8008 12.7428 12.4096C12.7428 12.0184 12.4257 11.7012 12.0345 11.7012C11.6433 11.7012 11.3262 12.0184 11.3262 12.4096C11.3262 12.8008 11.6433 13.1179 12.0345 13.1179Z" fill="#E31D35"/>
  <path d="M16.2917 11C16.4795 11 16.6597 10.9254 16.7925 10.7925C16.9254 10.6597 17 10.4795 17 10.2917V8.875C17 8.12355 16.7015 7.40288 16.1701 6.87153C15.6388 6.34018 14.9181 6.04167 14.1667 6.04167H12.75V4.625C12.75 4.06688 12.6401 3.51423 12.4265 2.9986C12.2129 2.48296 11.8999 2.01445 11.5052 1.6198C11.1106 1.22515 10.642 0.912094 10.1264 0.698512C9.61077 0.484929 9.05812 0.375 8.5 0.375C7.94188 0.375 7.38923 0.484929 6.8736 0.698512C6.35796 0.912094 5.88944 1.22515 5.4948 1.6198C5.10015 2.01445 4.78709 2.48296 4.57351 2.9986C4.35993 3.51423 4.25 4.06688 4.25 4.625V6.04167H2.83333C2.08189 6.04167 1.36122 6.34018 0.829864 6.87153C0.298511 7.40288 0 8.12355 0 8.875V15.9583C0 16.7098 0.298511 17.4305 0.829864 17.9618C1.36122 18.4932 2.08189 18.7917 2.83333 18.7917H8.5C8.68786 18.7917 8.86803 18.717 9.00087 18.5842C9.13371 18.4514 9.20833 18.2712 9.20833 18.0833C9.20833 17.8955 9.13371 17.7153 9.00087 17.5825C8.86803 17.4496 8.68786 17.375 8.5 17.375H2.83333C2.45761 17.375 2.09728 17.2257 1.8316 16.9601C1.56592 16.6944 1.41667 16.3341 1.41667 15.9583V8.875C1.41667 8.49928 1.56592 8.13894 1.8316 7.87327C2.09728 7.60759 2.45761 7.45833 2.83333 7.45833H14.1667C14.5424 7.45833 14.9027 7.60759 15.1684 7.87327C15.4341 8.13894 15.5833 8.49928 15.5833 8.875V10.2917C15.5833 10.4795 15.658 10.6597 15.7908 10.7925C15.9236 10.9254 16.1038 11 16.2917 11ZM5.66667 4.625C5.66667 3.87355 5.96518 3.15288 6.49653 2.62153C7.02788 2.09018 7.74855 1.79167 8.5 1.79167C9.25145 1.79167 9.97212 2.09018 10.5035 2.62153C11.0348 3.15288 11.3333 3.87355 11.3333 4.625V6.04167H5.66667V4.625Z" fill="#E31D35"/>
  <path d="M21.9016 15.6679L21.5191 16.2417C21.0839 15.029 20.2381 14.0068 19.1283 13.3524C18.0184 12.698 16.7146 12.4525 15.4428 12.6587C14.1709 12.8648 13.0114 13.5095 12.165 14.4809C11.3187 15.4524 10.839 16.6894 10.8091 17.9774C10.7792 19.2655 11.201 20.5234 12.0013 21.5331C12.8017 22.5428 13.9301 23.2406 15.191 23.5055C16.4518 23.7704 17.7657 23.5858 18.9047 22.9835C20.0437 22.3813 20.9361 21.3995 21.4271 20.2083C21.4984 20.0346 21.4979 19.8395 21.4255 19.6662C21.3531 19.4928 21.2148 19.3553 21.041 19.284C20.8672 19.2126 20.6722 19.2131 20.4989 19.2855C20.3255 19.3579 20.188 19.4962 20.1166 19.67C19.7547 20.5593 19.0931 21.2941 18.2465 21.7471C17.3999 22.2002 16.4215 22.3429 15.4808 22.1506C14.54 21.9584 13.6961 21.4432 13.0952 20.6943C12.4942 19.9455 12.174 19.01 12.19 18.05C12.206 17.0899 12.5572 16.1657 13.1828 15.4372C13.8084 14.7088 14.669 14.2221 15.6156 14.0613C16.5622 13.9005 17.5353 14.0757 18.3663 14.5567C19.1974 15.0377 19.8341 15.7941 20.1662 16.695L19.4579 16.2629C19.2997 16.1788 19.1156 16.1577 18.9425 16.2039C18.7695 16.2501 18.6203 16.3601 18.5252 16.5119C18.43 16.6636 18.3958 16.8458 18.4296 17.0217C18.4633 17.1976 18.5625 17.3542 18.7071 17.46L20.7258 18.7208L20.8391 18.7704H20.9029C20.9687 18.7797 21.0354 18.7797 21.1012 18.7704C21.16 18.7773 21.2195 18.7773 21.2783 18.7704H21.3208L21.4341 18.7208C21.4505 18.7241 21.4674 18.7241 21.4837 18.7208L21.5829 18.6571L21.6254 18.6075C21.6505 18.5823 21.6719 18.5537 21.6891 18.5225L23.0491 16.4967C23.1543 16.3407 23.1933 16.1494 23.1574 15.9648C23.1216 15.7801 23.0138 15.6173 22.8579 15.5121C22.702 15.4069 22.5106 15.3679 22.326 15.4038C22.1413 15.4397 21.9785 15.5474 21.8733 15.7033L21.9016 15.6679Z" fill="#E31D35"/>
</svg>