<svg width="19" height="19" viewBox="0 0 19 19" fill="none" xmlns="http://www.w3.org/2000/svg">
<path d="M9.375 0.25C6.88943 0.25273 4.50645 1.24133 2.74889 2.99889C0.991327 4.75645 0.00272962 7.13943 0 9.625V17.5C0 17.8978 0.158035 18.2794 0.43934 18.5607C0.720644 18.842 1.10218 19 1.5 19H9.375C11.8614 19 14.246 18.0123 16.0041 16.2541C17.7623 14.496 18.75 12.1114 18.75 9.625C18.75 7.1386 17.7623 4.75403 16.0041 2.99587C14.246 1.23772 11.8614 0.25 9.375 0.25ZM12.375 12.25H6C5.80109 12.25 5.61032 12.171 5.46967 12.0303C5.32902 11.8897 5.25 11.6989 5.25 11.5C5.25 11.3011 5.32902 11.1103 5.46967 10.9697C5.61032 10.829 5.80109 10.75 6 10.75H12.375C12.5739 10.75 12.7647 10.829 12.9053 10.9697C13.046 11.1103 13.125 11.3011 13.125 11.5C13.125 11.6989 13.046 11.8897 12.9053 12.0303C12.7647 12.171 12.5739 12.25 12.375 12.25ZM12.375 9.25H6C5.80109 9.25 5.61032 9.17098 5.46967 9.03033C5.32902 8.88968 5.25 8.69891 5.25 8.5C5.25 8.30109 5.32902 8.11032 5.46967 7.96967C5.61032 7.82902 5.80109 7.75 6 7.75H12.375C12.5739 7.75 12.7647 7.82902 12.9053 7.96967C13.046 8.11032 13.125 8.30109 13.125 8.5C13.125 8.69891 13.046 8.88968 12.9053 9.03033C12.7647 9.17098 12.5739 9.25 12.375 9.25Z" fill="black"/>
</svg>
