<svg xmlns="http://www.w3.org/2000/svg" width="20" height="20" viewBox="0 0 20 20" fill="none">
  <path d="M0.322754 5.87061H19.6776V14.1287H0.322754V5.87061Z" fill="white"/>
  <path d="M18.2941 3.54834H1.70627C0.942168 3.54834 0.322754 4.16775 0.322754 4.93186V5.87092H19.6776V4.93186C19.6776 4.16772 19.0581 3.54834 18.2941 3.54834ZM0.322754 15.068C0.322754 15.8321 0.942207 16.4515 1.70627 16.4515H18.2941C19.0582 16.4515 19.6776 15.8321 19.6776 15.068V14.129H0.322754V15.068ZM7.54178 11.7634C7.48138 11.7634 7.42204 11.7475 7.36973 11.7173C7.31742 11.6871 7.27398 11.6436 7.24378 11.5913C7.21358 11.539 7.19769 11.4797 7.19769 11.4193C7.19769 11.3589 7.2136 11.2996 7.24381 11.2472L9.70221 6.9892C9.7324 6.93689 9.77584 6.89346 9.82814 6.86326C9.88045 6.83306 9.93978 6.81716 10.0002 6.81716C10.0606 6.81716 10.1199 6.83306 10.1722 6.86326C10.2245 6.89346 10.2679 6.93689 10.2981 6.9892L12.7565 11.2472C12.7867 11.2996 12.8027 11.3589 12.8027 11.4193C12.8027 11.4797 12.7868 11.539 12.7566 11.5913C12.7264 11.6436 12.6829 11.6871 12.6306 11.7173C12.5783 11.7475 12.519 11.7634 12.4586 11.7634H7.54178ZM10.0002 7.84939L8.13775 11.0752H11.8626L10.0002 7.84939Z" fill="#164FCE"/>
  <path d="M10.0002 13.1825C9.93984 13.1825 9.88051 13.1666 9.82821 13.1364C9.7759 13.1062 9.73247 13.0628 9.70227 13.0105L7.24387 8.75246C7.21366 8.70016 7.19776 8.64082 7.19775 8.58042C7.19775 8.52002 7.21365 8.46068 7.24384 8.40837C7.27404 8.35606 7.31748 8.31262 7.36979 8.28242C7.4221 8.25222 7.48144 8.23632 7.54184 8.23633H12.4586C12.519 8.23632 12.5783 8.25222 12.6306 8.28242C12.683 8.31262 12.7264 8.35606 12.7566 8.40837C12.7868 8.46068 12.8027 8.52002 12.8027 8.58042C12.8027 8.64082 12.7868 8.70016 12.7566 8.75246L10.2982 13.0105C10.268 13.0628 10.2245 13.1062 10.1723 13.1364C10.12 13.1666 10.0606 13.1825 10.0002 13.1825ZM8.13782 8.92445L10.0002 12.1503L11.8627 8.92445H8.13782Z" fill="#164FCE"/>
  <path d="M18.2939 3.22559H1.70609C0.765352 3.22559 0 3.9909 0 4.93168V15.0679C0 16.0086 0.765352 16.7739 1.70609 16.7739H18.2939C19.2346 16.7739 20 16.0086 20 15.0679V4.93168C20 3.9909 19.2346 3.22559 18.2939 3.22559ZM1.70609 3.87074H18.2939C18.8789 3.87074 19.3548 4.34664 19.3548 4.93168V5.54816H17.0968C17.0112 5.54816 16.9292 5.58215 16.8687 5.64265C16.8082 5.70314 16.7742 5.78519 16.7742 5.87074C16.7742 5.9563 16.8082 6.03834 16.8687 6.09884C16.9292 6.15933 17.0112 6.19332 17.0968 6.19332H19.3548V13.8062H0.645156V6.19332H15.8064C15.892 6.19332 15.974 6.15933 16.0345 6.09884C16.095 6.03834 16.129 5.9563 16.129 5.87074C16.129 5.78519 16.095 5.70314 16.0345 5.64265C15.974 5.58215 15.892 5.54816 15.8064 5.54816H0.645156V4.93168C0.645156 4.34664 1.12109 3.87074 1.70609 3.87074ZM18.2939 16.1288H1.70609C1.12105 16.1288 0.645156 15.6529 0.645156 15.0679V14.4514H19.3548V15.0679C19.3548 15.6529 18.8789 16.1288 18.2939 16.1288Z" fill="#111A21"/>
</svg>