<svg xmlns="http://www.w3.org/2000/svg" width="24" height="24" viewBox="0 0 24 24" fill="none">
  <path d="M15.8398 22.25H8.15984C7.39146 22.2389 6.6556 21.9381 6.09939 21.4079C5.54318 20.8776 5.20763 20.157 5.15984 19.39L4.24984 5.55C4.24518 5.44966 4.26045 5.34938 4.29478 5.25498C4.32911 5.16057 4.38181 5.07391 4.44984 5C4.51993 4.9234 4.60478 4.86177 4.6993 4.81881C4.79382 4.77584 4.89605 4.75244 4.99984 4.75H18.9998C19.1027 4.74977 19.2045 4.7707 19.2989 4.81148C19.3933 4.85226 19.4783 4.91202 19.5487 4.98704C19.619 5.06207 19.6732 5.15077 19.7078 5.24761C19.7424 5.34446 19.7567 5.44739 19.7498 5.55L18.8798 19.39C18.8315 20.1638 18.4904 20.8902 17.9257 21.4214C17.361 21.9527 16.6152 22.249 15.8398 22.25ZM5.83984 6.25L6.60984 19.3C6.63528 19.6935 6.80975 20.0625 7.09772 20.3319C7.38569 20.6013 7.76551 20.7508 8.15984 20.75H15.8398C16.2335 20.7485 16.612 20.5982 16.8995 20.3292C17.1869 20.0603 17.3621 19.6927 17.3898 19.3L18.1998 6.3L5.83984 6.25Z" fill="#E31D35"/>
  <path d="M21 6.25H3C2.80109 6.25 2.61032 6.17098 2.46967 6.03033C2.32902 5.88968 2.25 5.69891 2.25 5.5C2.25 5.30109 2.32902 5.11032 2.46967 4.96967C2.61032 4.82902 2.80109 4.75 3 4.75H21C21.1989 4.75 21.3897 4.82902 21.5303 4.96967C21.671 5.11032 21.75 5.30109 21.75 5.5C21.75 5.69891 21.671 5.88968 21.5303 6.03033C21.3897 6.17098 21.1989 6.25 21 6.25Z" fill="#E31D35"/>
  <path d="M15 6.25H9C8.80189 6.24741 8.61263 6.16756 8.47253 6.02747C8.33244 5.88737 8.25259 5.69811 8.25 5.5V3.7C8.26268 3.18682 8.47219 2.69816 8.83518 2.33518C9.19816 1.97219 9.68682 1.76268 10.2 1.75H13.8C14.3217 1.76305 14.8177 1.97951 15.182 2.35317C15.5463 2.72684 15.7502 3.22812 15.75 3.75V5.5C15.7474 5.69811 15.6676 5.88737 15.5275 6.02747C15.3874 6.16756 15.1981 6.24741 15 6.25ZM9.75 4.75H14.25V3.75C14.25 3.63065 14.2026 3.51619 14.1182 3.4318C14.0338 3.34741 13.9193 3.3 13.8 3.3H10.2C10.0807 3.3 9.96619 3.34741 9.8818 3.4318C9.79741 3.51619 9.75 3.63065 9.75 3.75V4.75ZM15 18.25C14.8019 18.2474 14.6126 18.1676 14.4725 18.0275C14.3324 17.8874 14.2526 17.6981 14.25 17.5V9.5C14.25 9.30109 14.329 9.11032 14.4697 8.96967C14.6103 8.82902 14.8011 8.75 15 8.75C15.1989 8.75 15.3897 8.82902 15.5303 8.96967C15.671 9.11032 15.75 9.30109 15.75 9.5V17.5C15.7474 17.6981 15.6676 17.8874 15.5275 18.0275C15.3874 18.1676 15.1981 18.2474 15 18.25ZM9 18.25C8.80189 18.2474 8.61263 18.1676 8.47253 18.0275C8.33244 17.8874 8.25259 17.6981 8.25 17.5V9.5C8.25 9.30109 8.32902 9.11032 8.46967 8.96967C8.61032 8.82902 8.80109 8.75 9 8.75C9.19891 8.75 9.38968 8.82902 9.53033 8.96967C9.67098 9.11032 9.75 9.30109 9.75 9.5V17.5C9.74741 17.6981 9.66756 17.8874 9.52747 18.0275C9.38737 18.1676 9.19811 18.2474 9 18.25ZM12 18.25C11.8019 18.2474 11.6126 18.1676 11.4725 18.0275C11.3324 17.8874 11.2526 17.6981 11.25 17.5V9.5C11.25 9.30109 11.329 9.11032 11.4697 8.96967C11.6103 8.82902 11.8011 8.75 12 8.75C12.1989 8.75 12.3897 8.82902 12.5303 8.96967C12.671 9.11032 12.75 9.30109 12.75 9.5V17.5C12.7474 17.6981 12.6676 17.8874 12.5275 18.0275C12.3874 18.1676 12.1981 18.2474 12 18.25Z" fill="#E31D35"/>
</svg>