<svg xmlns="http://www.w3.org/2000/svg" width="24" height="24" viewBox="0 0 24 24" fill="none">
  <g clip-path="url(#clip0_217_978)">
    <path d="M22.8029 20.7147H6.75419C6.59692 20.7147 6.4412 20.6838 6.29591 20.6236C6.15061 20.5634 6.0186 20.4752 5.90739 20.364C5.79619 20.2528 5.70798 20.1208 5.6478 19.9755C5.58762 19.8302 5.55664 19.6744 5.55664 19.5172C5.55664 19.3599 5.58762 19.2042 5.6478 19.0589C5.70798 18.9136 5.79619 18.7816 5.90739 18.6704C6.0186 18.5592 6.15061 18.471 6.29591 18.4108C6.4412 18.3506 6.59692 18.3196 6.75419 18.3196H22.8025C23.1201 18.3196 23.4247 18.4457 23.6493 18.6703C23.874 18.8948 24.0002 19.1994 24.0002 19.517C24.0003 19.8346 23.8742 20.1392 23.6496 20.3638C23.4251 20.5885 23.1205 20.7147 22.8029 20.7147ZM22.8029 13.1977H6.75419C6.43658 13.1977 6.13198 13.0716 5.90739 12.847C5.68281 12.6224 5.55664 12.3178 5.55664 12.0002C5.55664 11.6826 5.68281 11.378 5.90739 11.1534C6.13198 10.9288 6.43658 10.8027 6.75419 10.8027H22.8025C23.1201 10.8026 23.4247 10.9287 23.6493 11.1533C23.874 11.3778 24.0002 11.6824 24.0002 12C24.0003 12.3176 23.8742 12.6222 23.6496 12.8468C23.4251 13.0715 23.1205 13.1977 22.8029 13.1977ZM22.8029 5.68075H6.75419C6.59692 5.68075 6.4412 5.64977 6.29591 5.58959C6.15061 5.52941 6.0186 5.4412 5.90739 5.33C5.79619 5.21879 5.70798 5.08678 5.6478 4.94149C5.58762 4.79619 5.55664 4.64047 5.55664 4.4832C5.55664 4.32594 5.58762 4.17022 5.6478 4.02492C5.70798 3.87963 5.79619 3.74761 5.90739 3.63641C6.0186 3.52521 6.15061 3.437 6.29591 3.37682C6.4412 3.31664 6.59692 3.28566 6.75419 3.28566H22.8025C23.1201 3.28561 23.4247 3.41173 23.6493 3.63627C23.874 3.86082 24.0002 4.1654 24.0002 4.48301C24.0003 4.80061 23.8742 5.10524 23.6496 5.32986C23.4251 5.55448 23.1205 5.6807 22.8029 5.68075Z" fill="#E31D35"/>
    <path d="M1.6083 6.18412C2.49654 6.18412 3.21661 5.46406 3.21661 4.57582C3.21661 3.68758 2.49654 2.96751 1.6083 2.96751C0.720062 2.96751 0 3.68758 0 4.57582C0 5.46406 0.720062 6.18412 1.6083 6.18412Z" fill="#E31D35"/>
    <path d="M1.6083 13.6085C2.49654 13.6085 3.21661 12.8884 3.21661 12.0002C3.21661 11.112 2.49654 10.3919 1.6083 10.3919C0.720062 10.3919 0 11.112 0 12.0002C0 12.8884 0.720062 13.6085 1.6083 13.6085Z" fill="#E31D35"/>
    <path d="M1.6083 21.0329C2.49654 21.0329 3.21661 20.3128 3.21661 19.4246C3.21661 18.5363 2.49654 17.8163 1.6083 17.8163C0.720062 17.8163 0 18.5363 0 19.4246C0 20.3128 0.720062 21.0329 1.6083 21.0329Z" fill="#E31D35"/>
  </g>
  <defs>
    <clipPath id="clip0_217_978">
      <rect width="24" height="24" fill="white"/>
    </clipPath>
  </defs>
</svg>