<svg xmlns="http://www.w3.org/2000/svg" width="96" height="96" viewBox="0 0 96 96" fill="none">
  <path fill-rule="evenodd" clip-rule="evenodd" d="M15 36V28C14.9984 26.2924 15.3336 24.6012 15.9864 23.0232C16.6391 21.4453 17.5966 20.0116 18.8041 18.8041C20.0116 17.5966 21.4453 16.6391 23.0232 15.9864C24.6012 15.3336 26.2924 14.9984 28 15H36C36.7956 15 37.5587 14.6839 38.1213 14.1213C38.6839 13.5587 39 12.7956 39 12C39 11.2044 38.6839 10.4413 38.1213 9.87868C37.5587 9.31607 36.7956 9 36 9H28C22.9609 9 18.1282 11.0018 14.565 14.565C11.0018 18.1282 9 22.9609 9 28V36C9 36.7956 9.31607 37.5587 9.87868 38.1213C10.4413 38.6839 11.2044 39 12 39C12.7956 39 13.5587 38.6839 14.1213 38.1213C14.6839 37.5587 15 36.7956 15 36ZM60 15H68C69.7076 14.9984 71.3988 15.3336 72.9768 15.9864C74.5547 16.6391 75.9884 17.5966 77.1959 18.8041C78.4034 20.0116 79.3609 21.4453 80.0136 23.0232C80.6664 24.6012 81.0016 26.2924 81 28V36C81 36.7956 81.3161 37.5587 81.8787 38.1213C82.4413 38.6839 83.2044 39 84 39C84.7956 39 85.5587 38.6839 86.1213 38.1213C86.6839 37.5587 87 36.7956 87 36V28C87 22.9609 84.9982 18.1282 81.435 14.565C77.8718 11.0018 73.0391 9 68 9H60C59.2043 9 58.4413 9.31607 57.8787 9.87868C57.3161 10.4413 57 11.2044 57 12C57 12.7956 57.3161 13.5587 57.8787 14.1213C58.4413 14.6839 59.2043 15 60 15ZM9 60V68C9 73.0391 11.0018 77.8718 14.565 81.435C18.1282 84.9982 22.9609 87 28 87H36C36.7956 87 37.5587 86.6839 38.1213 86.1213C38.6839 85.5587 39 84.7956 39 84C39 83.2044 38.6839 82.4413 38.1213 81.8787C37.5587 81.3161 36.7956 81 36 81H28C26.2924 81.0016 24.6012 80.6664 23.0232 80.0136C21.4453 79.3609 20.0116 78.4034 18.8041 77.1959C17.5966 75.9884 16.6391 74.5547 15.9864 72.9768C15.3336 71.3988 14.9984 69.7076 15 68V60C15 59.2043 14.6839 58.4413 14.1213 57.8787C13.5587 57.3161 12.7956 57 12 57C11.2044 57 10.4413 57.3161 9.87868 57.8787C9.31607 58.4413 9 59.2043 9 60ZM60 87H68C73.0391 87 77.8718 84.9982 81.435 81.435C84.9982 77.8718 87 73.0391 87 68V60C87 59.2043 86.6839 58.4413 86.1213 57.8787C85.5587 57.3161 84.7956 57 84 57C83.2044 57 82.4413 57.3161 81.8787 57.8787C81.3161 58.4413 81 59.2043 81 60V68C81.0016 69.7076 80.6664 71.3988 80.0136 72.9768C79.3609 74.5547 78.4034 75.9884 77.1959 77.1959C75.9884 78.4034 74.5547 79.3609 72.9768 80.0136C71.3988 80.6664 69.7076 81.0016 68 81H60C59.2043 81 58.4413 81.3161 57.8787 81.8787C57.3161 82.4413 57 83.2044 57 84C57 84.7956 57.3161 85.5587 57.8787 86.1213C58.4413 86.6839 59.2043 87 60 87ZM59 34V38C59 38.7956 59.3161 39.5587 59.8787 40.1213C60.4413 40.6839 61.2043 41 62 41C62.7957 41 63.5587 40.6839 64.1213 40.1213C64.6839 39.5587 65 38.7956 65 38V34C65 33.2044 64.6839 32.4413 64.1213 31.8787C63.5587 31.3161 62.7957 31 62 31C61.2043 31 60.4413 31.3161 59.8787 31.8787C59.3161 32.4413 59 33.2044 59 34ZM31 34V38C31 38.7956 31.3161 39.5587 31.8787 40.1213C32.4413 40.6839 33.2044 41 34 41C34.7956 41 35.5587 40.6839 36.1213 40.1213C36.6839 39.5587 37 38.7956 37 38V34C37 33.2044 36.6839 32.4413 36.1213 31.8787C35.5587 31.3161 34.7956 31 34 31C33.2044 31 32.4413 31.3161 31.8787 31.8787C31.3161 32.4413 31 33.2044 31 34ZM47 50.144V40C47 39.2044 47.3161 38.4413 47.8787 37.8787C48.4413 37.3161 49.2043 37 50 37C50.7957 37 51.5587 37.3161 52.1213 37.8787C52.6839 38.4413 53 39.2044 53 40V52C53 52.5574 52.8447 53.1038 52.5514 53.5779C52.2582 54.052 51.8387 54.435 51.34 54.684L47.34 56.684C46.9872 56.8636 46.6022 56.9716 46.2075 57.0017C45.8127 57.0318 45.4158 56.9835 45.0398 56.8596C44.6638 56.7356 44.316 56.5384 44.0166 56.2794C43.7171 56.0204 43.4719 55.7047 43.2951 55.3505C43.1182 54.9962 43.0132 54.6105 42.9861 54.2155C42.9591 53.8205 43.0105 53.424 43.1374 53.049C43.2642 52.6739 43.4641 52.3277 43.7255 52.0303C43.9868 51.7329 44.3044 51.4901 44.66 51.316L47 50.144ZM59.88 59.88C60.4487 59.3501 61.2009 59.0616 61.9781 59.0753C62.7553 59.089 63.4968 59.4039 64.0465 59.9535C64.5961 60.5032 64.911 61.2447 64.9247 62.0219C64.9384 62.7991 64.6499 63.5513 64.12 64.12C63.576 64.664 64.12 64.124 64.116 64.128C59.8417 68.4021 54.0446 70.8032 48 70.8032C41.9554 70.8032 36.1583 68.4021 31.884 64.128L31.88 64.12C31.3501 63.5513 31.0616 62.7991 31.0753 62.0219C31.089 61.2447 31.4039 60.5032 31.9535 59.9535C32.5032 59.4039 33.2447 59.089 34.0219 59.0753C34.7991 59.0616 35.5513 59.3501 36.12 59.88C36.664 60.424 36.124 59.88 36.128 59.884C39.277 63.032 43.5473 64.8005 48 64.8005C52.4527 64.8005 56.723 63.032 59.872 59.884L59.88 59.88Z" fill="#15211F" fill-opacity="0.4"/>
</svg>