<svg xmlns="http://www.w3.org/2000/svg" width="28" height="28" viewBox="0 0 28 28" fill="none">
  <g clip-path="url(#clip0_28_683)">
    <path d="M24.2267 0H3.77306C1.6893 0 0 1.68923 0 3.77306V24.2268C0 26.3106 1.68923 27.9999 3.77306 27.9999H13.8607L13.8779 17.9942H11.2784C11.1162 17.9942 10.9605 17.9299 10.8456 17.8154C10.7306 17.7009 10.6657 17.5455 10.6651 17.3832L10.6526 14.158C10.6523 14.0773 10.668 13.9973 10.6987 13.9226C10.7293 13.8479 10.7745 13.78 10.8315 13.7228C10.8885 13.6656 10.9562 13.6202 11.0307 13.5892C11.1053 13.5583 11.1853 13.5423 11.266 13.5423H13.8608V10.4259C13.8608 6.80938 16.0695 4.84014 19.2957 4.84014H21.943C22.1057 4.84014 22.2617 4.90476 22.3768 5.01979C22.4918 5.13482 22.5564 5.29084 22.5564 5.45352V8.17305C22.5564 8.33566 22.4918 8.49163 22.3769 8.60665C22.2619 8.72167 22.106 8.78633 21.9434 8.78642L20.3187 8.78718C18.5642 8.78718 18.2245 9.6209 18.2245 10.8444V13.5424H22.0798C22.4471 13.5424 22.7321 13.8631 22.6888 14.228L22.3065 17.4532C22.2889 17.6023 22.2171 17.7398 22.1049 17.8395C21.9926 17.9392 21.8477 17.9943 21.6975 17.9944H18.2417L18.2245 28H24.2268C26.3106 28 27.9998 26.3108 27.9998 24.227V3.77306C27.9997 1.68923 26.3105 0 24.2267 0Z" fill="#475993"/>
  </g>
  <defs>
    <clipPath id="clip0_28_683">
      <rect width="28" height="28" fill="white"/>
    </clipPath>
  </defs>
</svg>