<svg xmlns="http://www.w3.org/2000/svg" width="24" height="24" viewBox="0 0 24 24" fill="none">
  <path fill-rule="evenodd" clip-rule="evenodd" d="M9.88407 2.483C9.88633 2.5815 9.86916 2.67947 9.83354 2.77133C9.79792 2.86319 9.74455 2.94714 9.67648 3.01836C9.60841 3.08959 9.52698 3.14671 9.43682 3.18645C9.34667 3.2262 9.24957 3.24779 9.15107 3.25C6.45707 3.311 5.20207 3.583 4.37607 4.406C3.66007 5.12 3.35207 6.166 3.24907 8.237C3.24568 8.33639 3.22255 8.43412 3.18103 8.52449C3.13951 8.61486 3.08044 8.69607 3.00724 8.76339C2.93404 8.83072 2.84819 8.88281 2.75467 8.91665C2.66115 8.95048 2.56184 8.96538 2.46251 8.96047C2.36318 8.95557 2.26582 8.93095 2.17609 8.88807C2.08636 8.84518 2.00606 8.78488 1.93985 8.71067C1.87365 8.63645 1.82286 8.54982 1.79045 8.45579C1.75804 8.36177 1.74466 8.26224 1.75107 8.163C1.85607 6.049 2.17107 4.486 3.31707 3.343C4.62007 2.047 6.48007 1.81 9.11707 1.75C9.21557 1.74774 9.31355 1.76491 9.40541 1.80053C9.49727 1.83615 9.58121 1.88952 9.65244 1.95759C9.72367 2.02566 9.78078 2.1071 9.82053 2.19725C9.86027 2.2874 9.88187 2.3845 9.88407 2.483ZM14.1161 2.483C14.1183 2.3845 14.1399 2.2874 14.1796 2.19725C14.2194 2.1071 14.2765 2.02566 14.3477 1.95759C14.4189 1.88952 14.5029 1.83615 14.5947 1.80053C14.6866 1.76491 14.7846 1.74774 14.8831 1.75C17.5211 1.81 19.3811 2.046 20.6831 3.344C21.8291 4.486 22.1441 6.049 22.2491 8.163C22.2555 8.26224 22.2421 8.36177 22.2097 8.45579C22.1773 8.54982 22.1265 8.63645 22.0603 8.71067C21.9941 8.78488 21.9138 8.84518 21.8241 8.88807C21.7343 8.93095 21.637 8.95557 21.5376 8.96047C21.4383 8.96538 21.339 8.95048 21.2455 8.91665C21.152 8.88281 21.0661 8.83072 20.9929 8.76339C20.9197 8.69607 20.8606 8.61486 20.8191 8.52449C20.7776 8.43412 20.7545 8.33639 20.7511 8.237C20.6481 6.166 20.3411 5.12 19.6241 4.407C18.7981 3.583 17.5431 3.311 14.8491 3.25C14.7506 3.24779 14.6535 3.2262 14.5633 3.18645C14.4732 3.14671 14.3917 3.08959 14.3237 3.01836C14.2556 2.94714 14.2022 2.86319 14.1666 2.77133C14.131 2.67947 14.1138 2.5815 14.1161 2.483ZM2.46307 15.05C2.66172 15.0402 2.85611 15.1097 3.00351 15.2432C3.15091 15.3768 3.23924 15.5634 3.24907 15.762C3.35207 17.833 3.65907 18.879 4.37607 19.592C5.20207 20.416 6.45707 20.688 9.15107 20.749C9.24957 20.7512 9.34665 20.7728 9.43679 20.8126C9.52693 20.8523 9.60836 20.9095 9.67642 20.9807C9.74449 21.0519 9.79786 21.1358 9.83349 21.2277C9.86912 21.3195 9.88631 21.4175 9.88407 21.516C9.88184 21.6145 9.86023 21.7116 9.82048 21.8017C9.78072 21.8919 9.72361 21.9733 9.65238 22.0413C9.58116 22.1094 9.49723 22.1628 9.40538 22.1984C9.31353 22.234 9.21557 22.2512 9.11707 22.249C6.47907 22.189 4.61907 21.953 3.31707 20.655C2.17107 19.513 1.85707 17.95 1.75107 15.836C1.74128 15.6374 1.81079 15.443 1.94431 15.2956C2.07784 15.1482 2.26444 15.0598 2.46307 15.05ZM21.5371 15.05C21.7357 15.0598 21.9223 15.1482 22.0558 15.2956C22.1894 15.443 22.2589 15.6374 22.2491 15.836C22.1441 17.95 21.8291 19.513 20.6831 20.656C19.3811 21.953 17.5211 22.189 14.8831 22.249C14.6842 22.2535 14.4916 22.1788 14.3478 22.0413C14.2039 21.9039 14.1206 21.7149 14.1161 21.516C14.1116 21.3171 14.1863 21.1245 14.3237 20.9807C14.4612 20.8368 14.6502 20.7535 14.8491 20.749C17.5431 20.688 18.7981 20.416 19.6241 19.593C20.3401 18.879 20.6481 17.833 20.7511 15.762C20.7609 15.5634 20.8492 15.3768 20.9966 15.2432C21.144 15.1097 21.3384 15.0402 21.5371 15.05ZM11.9921 7.75C11.0221 7.75 10.2381 8.535 10.2381 9.5C10.2381 10.466 11.0221 11.25 11.9921 11.25C12.9611 11.25 13.7451 10.466 13.7451 9.5C13.7451 8.535 12.9611 7.75 11.9921 7.75ZM8.73807 9.5C8.73834 9.07294 8.82271 8.65011 8.98638 8.25566C9.15005 7.86121 9.38982 7.50286 9.69198 7.20107C9.99414 6.89928 10.3528 6.65996 10.7474 6.49678C11.1421 6.33359 11.565 6.24974 11.9921 6.25C12.8544 6.24973 13.6815 6.59196 14.2915 7.20143C14.9016 7.81089 15.2445 8.63769 15.2451 9.5C15.2445 10.3623 14.9016 11.1891 14.2915 11.7986C13.6815 12.408 12.8544 12.7503 11.9921 12.75C11.565 12.7503 11.1421 12.6664 10.7474 12.5032C10.3528 12.34 9.99414 12.1007 9.69198 11.7989C9.38982 11.4971 9.15005 11.1388 8.98638 10.7443C8.82271 10.3499 8.73834 9.92706 8.73807 9.5ZM15.9481 17.508C13.9021 15.288 10.0931 15.37 8.04207 17.518C7.97483 17.5923 7.89338 17.6523 7.80254 17.6946C7.7117 17.7369 7.61331 17.7606 7.51317 17.7642C7.41304 17.7678 7.31319 17.7513 7.21953 17.7157C7.12587 17.6801 7.0403 17.6261 6.96786 17.5569C6.89542 17.4876 6.83759 17.4046 6.79778 17.3126C6.75797 17.2207 6.73699 17.1217 6.73608 17.0215C6.73517 16.9213 6.75434 16.8219 6.79247 16.7293C6.8306 16.6366 6.88691 16.5525 6.95807 16.482C9.57107 13.745 14.3841 13.597 17.0511 16.492C17.1769 16.6395 17.2407 16.8301 17.2291 17.0236C17.2175 17.2172 17.1314 17.3987 16.9889 17.5302C16.8463 17.6616 16.6584 17.7327 16.4645 17.7286C16.2706 17.7245 16.0859 17.6454 15.9491 17.508H15.9481Z" fill="#E31D35"/>
</svg>