<svg xmlns="http://www.w3.org/2000/svg" width="20" height="20" viewBox="0 0 20 20" fill="none">
  <path d="M1.30038 19.6C1.07538 19.45 1.00038 19.15 1.00038 18.85L1.67538 15.025C-1.09962 10.45 0.400377 4.45 4.97538 1.75C9.55038 -0.949999 15.5504 0.475001 18.3254 5.05C21.1004 9.625 19.6004 15.625 15.0254 18.4C12.0254 20.2 8.20038 20.275 5.20038 18.475L2.12538 19.75C1.75038 19.825 1.52538 19.75 1.30038 19.6ZM5.20038 16.9C5.35038 16.9 5.50038 16.975 5.57538 17.05C9.47538 19.525 14.5754 18.325 16.9754 14.5C19.3754 10.675 18.2504 5.5 14.4254 3.1C10.6004 0.700001 5.50038 1.675 3.02538 5.575C1.30038 8.275 1.30038 11.8 3.02538 14.5C3.10038 14.65 3.17538 14.875 3.10038 15.025L2.65038 17.8L4.82538 16.9H5.20038Z" fill="#E31D35"/>
</svg>