<svg width="24" height="21" viewBox="0 0 24 21" fill="none" xmlns="http://www.w3.org/2000/svg">
<path d="M11.9733 21C11.7147 21 11.4582 20.952 11.204 20.8559C10.9498 20.7607 10.7262 20.6143 10.5333 20.4167L9.00267 19.0093C6.62933 16.8111 4.536 14.6731 2.72267 12.5954C0.907555 10.5186 0 8.35975 0 6.11888C0 4.38928 0.576 2.93706 1.728 1.76224C2.88 0.587413 4.304 0 6 0C6.97244 0 7.98533 0.250647 9.03867 0.751942C10.092 1.25324 11.0791 2.19872 12 3.58838C12.9218 2.19872 13.9089 1.25324 14.9613 0.751942C16.0138 0.250647 17.0267 0 18 0C19.696 0 21.12 0.587413 22.272 1.76224C23.424 2.93706 24 4.38928 24 6.11888C24 8.41142 23.0556 10.6151 21.1667 12.73C19.2778 14.8449 17.2102 16.9398 14.964 19.0148L13.4413 20.4167C13.2476 20.6143 13.0196 20.7607 12.7573 20.8559C12.4951 20.9511 12.2342 20.9991 11.9747 21" fill="black"/>
</svg>
