<svg xmlns="http://www.w3.org/2000/svg" width="96" height="96" viewBox="0 0 96 96" fill="none">
  <path d="M63.5999 68.9998C63.4128 68.9362 63.215 68.9103 63.0178 68.9234C62.8207 68.9366 62.6281 68.9885 62.451 69.0764C62.274 69.1642 62.1161 69.2861 61.9863 69.4351C61.8566 69.5841 61.7575 69.7573 61.6949 69.9448C61.5899 70.2748 61.4699 70.6048 61.3349 70.9198C61.1801 71.2858 61.1768 71.6983 61.3259 72.0667C61.475 72.4352 61.7641 72.7294 62.1299 72.8848C62.3137 72.9674 62.5135 73.0084 62.7149 73.0048C63.0094 73.0045 63.2972 72.9176 63.5426 72.7549C63.788 72.5922 63.9801 72.3609 64.0949 72.0898C64.2599 71.6848 64.4099 71.2948 64.5449 70.9048C64.6085 70.7177 64.6344 70.5198 64.6213 70.3227C64.6081 70.1255 64.5562 69.9329 64.4683 69.7559C64.3805 69.5788 64.2586 69.4209 64.1096 69.2912C63.9605 69.1614 63.7873 69.0624 63.5999 68.9998ZM67.4999 44.9998C67.506 42.4025 66.9899 39.8306 65.9824 37.4367C64.9748 35.0429 63.4964 32.876 61.6349 31.0648C61.4931 30.9269 61.3255 30.8183 61.1417 30.7452C60.9579 30.672 60.7615 30.6358 60.5637 30.6386C60.3659 30.6414 60.1706 30.6831 59.989 30.7614C59.8073 30.8397 59.6428 30.9529 59.5049 31.0948C59.367 31.2366 59.2584 31.4042 59.1853 31.588C59.1122 31.7718 59.076 31.9682 59.0788 32.166C59.0816 32.3638 59.1233 32.5591 59.2016 32.7407C59.2798 32.9224 59.3931 33.0869 59.5349 33.2248C61.1135 34.7515 62.367 36.5816 63.2203 38.6051C64.0735 40.6286 64.5088 42.8037 64.4999 44.9998V54.3298C64.5079 58.1844 64.0035 62.023 62.9999 65.7448C62.9478 65.9358 62.9341 66.1354 62.9595 66.3318C62.9849 66.5282 63.049 66.7176 63.148 66.8892C63.247 67.0607 63.379 67.2109 63.5364 67.3312C63.6938 67.4514 63.8734 67.5393 64.0649 67.5898H64.4549C64.7936 67.6014 65.1262 67.498 65.3985 67.2964C65.6709 67.0948 65.867 66.807 65.9549 66.4798C66.987 62.498 67.4913 58.3979 67.4549 54.2848L67.4999 44.9998ZM26.1449 63.8998C26.3423 63.9009 26.538 63.8631 26.7208 63.7884C26.9035 63.7138 27.0698 63.6038 27.2099 63.4648L28.0799 62.5798C29.165 61.4975 30.0257 60.2116 30.6126 58.7958C31.1995 57.3801 31.5011 55.8623 31.4999 54.3298V44.9998C31.4978 42.2101 32.203 39.4655 33.5496 37.0223C34.8962 34.5792 36.8402 32.5174 39.2 31.0296C41.5598 29.5418 44.2583 28.6766 47.0433 28.5149C49.8283 28.3531 52.6088 28.9001 55.1249 30.1048C55.304 30.2066 55.5021 30.2705 55.707 30.2924C55.9118 30.3144 56.119 30.2938 56.3155 30.2322C56.5121 30.1705 56.6938 30.069 56.8495 29.9341C57.0051 29.7991 57.1312 29.6335 57.22 29.4476C57.3088 29.2617 57.3584 29.0595 57.3657 28.8537C57.3729 28.6478 57.3377 28.4426 57.2621 28.2509C57.1866 28.0593 57.0724 27.8852 56.9266 27.7397C56.7809 27.5941 56.6067 27.4801 56.4149 27.4048C53.4421 25.9827 50.1574 25.3371 46.8675 25.5285C43.5777 25.7199 40.3899 26.7419 37.6021 28.4991C34.8142 30.2563 32.5172 32.6914 30.9254 35.5769C29.3337 38.4625 28.4992 41.7043 28.4999 44.9998V54.3298C28.5024 55.4703 28.2783 56.5999 27.8405 57.6531C27.4028 58.7063 26.7601 59.662 25.9499 60.4648L25.0799 61.3348C24.9393 61.4742 24.8277 61.6401 24.7516 61.8229C24.6754 62.0057 24.6362 62.2017 24.6362 62.3998C24.6362 62.5978 24.6754 62.7938 24.7516 62.9766C24.8277 63.1594 24.9393 63.3253 25.0799 63.4648C25.2201 63.6038 25.3863 63.7138 25.5691 63.7884C25.7518 63.8631 25.9475 63.9009 26.1449 63.8998Z" fill="#15211F" fill-opacity="0.4"/>
  <path d="M61.5001 49.5001C61.5001 49.1023 61.3421 48.7207 61.0608 48.4394C60.7794 48.1581 60.3979 48.0001 60.0001 48.0001C59.6023 48.0001 59.2207 48.1581 58.9394 48.4394C58.6581 48.7207 58.5001 49.1023 58.5001 49.5001V54.3301C58.5164 61.6519 56.4342 68.825 52.5001 75.0001C52.2858 75.3344 52.2129 75.7401 52.2972 76.1281C52.3816 76.5161 52.6164 76.8549 52.9501 77.0701C53.1915 77.226 53.4727 77.3093 53.7601 77.3101C54.0111 77.3097 54.2579 77.2463 54.4781 77.1257C54.6982 77.0052 54.8846 76.8313 55.0201 76.6201C59.2684 69.9632 61.5174 62.2271 61.5001 54.3301V49.5001ZM36.0001 51.0001C36.3979 51.0001 36.7794 50.842 37.0608 50.5607C37.3421 50.2794 37.5001 49.8979 37.5001 49.5001V45.0001C37.327 42.2153 38.2673 39.4758 40.1141 37.3843C41.9608 35.2928 44.5628 34.0206 47.3476 33.8476C50.1324 33.6745 52.8718 34.6148 54.9633 36.4616C57.0548 38.3083 58.327 40.9103 58.5001 43.6951C58.5518 44.0929 58.7594 44.4539 59.0773 44.6986C59.3952 44.9434 59.7973 45.0518 60.1951 45.0001C60.5929 44.9484 60.9539 44.7407 61.1986 44.4229C61.4434 44.105 61.5518 43.7029 61.5001 43.3051C61.2753 39.7247 59.6374 36.3802 56.9468 34.0074C54.2561 31.6346 50.733 30.4278 47.1526 30.6526C43.5722 30.8773 40.2277 32.5152 37.8549 35.2059C35.4821 37.8966 34.2753 41.4197 34.5001 45.0001V49.5001C34.5001 49.8979 34.6581 50.2794 34.9394 50.5607C35.2207 50.842 35.6023 51.0001 36.0001 51.0001ZM36.0001 54.0001C35.803 53.9858 35.605 54.0106 35.4176 54.0731C35.2301 54.1355 35.0568 54.2344 34.9077 54.364C34.7585 54.4936 34.6365 54.6515 34.5485 54.8284C34.4605 55.0053 34.4084 55.1979 34.3951 55.3951C34.1417 58.9114 32.6293 62.2185 30.1351 64.7101L28.3201 66.6001C28.1641 66.7357 28.0378 66.9021 27.9492 67.0888C27.8605 67.2755 27.8114 67.4785 27.8049 67.6851C27.7985 67.8917 27.8347 68.0974 27.9115 68.2893C27.9883 68.4812 28.1039 68.6552 28.2511 68.8003C28.3983 68.9454 28.5739 69.0585 28.7668 69.1326C28.9598 69.2066 29.166 69.24 29.3725 69.2306C29.579 69.2212 29.7813 69.1692 29.9667 69.0779C30.1521 68.9866 30.3167 68.858 30.4501 68.7001L32.3251 66.8251C35.3452 63.8305 37.1828 59.8463 37.5001 55.6051C37.5145 55.3994 37.4864 55.193 37.4175 54.9988C37.3486 54.8045 37.2404 54.6265 37.0997 54.4759C36.9589 54.3253 36.7886 54.2053 36.5994 54.1234C36.4103 54.0416 36.2062 53.9996 36.0001 54.0001ZM53.5651 60.0001C53.372 59.9606 53.1731 59.9596 52.9797 59.9971C52.7862 60.0345 52.6021 60.1097 52.4377 60.2184C52.2733 60.327 52.132 60.467 52.0217 60.6303C51.9115 60.7936 51.8344 60.977 51.7951 61.1701C50.6824 66.4574 48.2639 71.382 44.7601 75.4951C44.5015 75.7974 44.3736 76.1901 44.4046 76.5868C44.4355 76.9834 44.6227 77.3515 44.9251 77.6101C45.2274 77.8687 45.6201 77.9966 46.0168 77.9656C46.4134 77.9347 46.7815 77.7474 47.0401 77.4451C50.8688 72.9471 53.5138 67.5643 54.7351 61.7851C54.7767 61.591 54.7794 61.3905 54.743 61.1954C54.7066 61.0002 54.6318 60.8142 54.523 60.6482C54.4142 60.4821 54.2734 60.3393 54.109 60.2281C53.9446 60.1168 53.7597 60.0393 53.5651 60.0001Z" fill="#15211F" fill-opacity="0.4"/>
  <path d="M43.5001 45C43.5001 43.8065 43.9742 42.6619 44.8181 41.818C45.662 40.9741 46.8066 40.5 48.0001 40.5C49.1936 40.5 50.3382 40.9741 51.1821 41.818C52.026 42.6619 52.5001 43.8065 52.5001 45V55.38C52.4683 55.7778 52.5958 56.172 52.8546 56.4758C53.1134 56.7796 53.4823 56.9682 53.8801 57C54.2779 57.0318 54.6721 56.9043 54.9759 56.6455C55.2797 56.3867 55.4683 56.0178 55.5001 55.62V45C55.5001 43.0109 54.7099 41.1032 53.3034 39.6967C51.8969 38.2902 49.9892 37.5 48.0001 37.5C46.011 37.5 44.1033 38.2902 42.6968 39.6967C41.2903 41.1032 40.5001 43.0109 40.5001 45V54.33C40.5251 57.0513 40.0074 59.7502 38.9771 62.2691C37.9469 64.788 36.4249 67.0762 34.5001 69C34.3595 69.1394 34.2479 69.3053 34.1718 69.4881C34.0956 69.6709 34.0564 69.867 34.0564 70.065C34.0564 70.263 34.0956 70.4591 34.1718 70.6419C34.2479 70.8247 34.3595 70.9906 34.5001 71.13C34.6395 71.2706 34.8054 71.3822 34.9882 71.4583C35.171 71.5345 35.3671 71.5737 35.5651 71.5737C35.7631 71.5737 35.9592 71.5345 36.142 71.4583C36.3247 71.3822 36.4907 71.2706 36.6301 71.13C38.8303 68.9239 40.5705 66.3028 41.7498 63.4189C42.9291 60.535 43.524 57.4456 43.5001 54.33V45ZM39.9751 71.805C39.5701 72.285 39.1351 72.735 38.6851 73.185C38.5445 73.3244 38.4329 73.4903 38.3568 73.6731C38.2806 73.8559 38.2414 74.052 38.2414 74.25C38.2414 74.448 38.2806 74.6441 38.3568 74.8269C38.4329 75.0097 38.5445 75.1756 38.6851 75.315C38.8245 75.4556 38.9904 75.5672 39.1732 75.6433C39.356 75.7195 39.5521 75.7587 39.7501 75.7587C39.9481 75.7587 40.1442 75.7195 40.327 75.6433C40.5097 75.5672 40.6756 75.4556 40.8151 75.315C41.3251 74.805 41.7901 74.295 42.3151 73.815C42.5737 73.5127 42.7016 73.12 42.6706 72.7233C42.6397 72.3267 42.4524 71.9586 42.1501 71.7C41.8477 71.4414 41.4551 71.3135 41.0584 71.3445C40.6618 71.3754 40.2937 71.5627 40.0351 71.865L39.9751 71.805Z" fill="#15211F" fill-opacity="0.4"/>
  <path d="M45 70.035C47.9461 65.3269 49.5057 59.8839 49.5 54.33V45C49.5 44.6022 49.342 44.2206 49.0607 43.9393C48.7794 43.658 48.3978 43.5 48 43.5C47.6022 43.5 47.2206 43.658 46.9393 43.9393C46.658 44.2206 46.5 44.6022 46.5 45V54.33C46.5071 59.3226 45.1032 64.2157 42.45 68.445C42.2392 68.7832 42.1713 69.1912 42.2613 69.5794C42.3513 69.9676 42.5919 70.3041 42.93 70.515C43.2682 70.7258 43.6762 70.7937 44.0644 70.7037C44.4526 70.6137 44.7892 70.3731 45 70.035ZM27.885 31.8C28.043 31.9205 28.2235 32.0084 28.4158 32.0586C28.6081 32.1088 28.8085 32.1203 29.0053 32.0924C29.202 32.0645 29.3913 31.9977 29.5621 31.896C29.7329 31.7943 29.8817 31.6597 30 31.5C32.8334 27.7221 36.7837 24.9315 41.2912 23.5234C45.7988 22.1154 50.6351 22.1613 55.1151 23.6546C59.5951 25.148 63.4917 28.013 66.2529 31.844C69.0142 35.675 70.5 40.2776 70.5 45V52.5C70.5 52.8978 70.658 53.2794 70.9393 53.5607C71.2206 53.842 71.6022 54 72 54C72.3978 54 72.7794 53.842 73.0607 53.5607C73.342 53.2794 73.5 52.8978 73.5 52.5V45C73.5042 39.6441 71.8219 34.4229 68.6918 30.077C65.5617 25.731 61.1426 22.4809 56.0614 20.7878C50.9803 19.0946 45.495 19.0443 40.3836 20.644C35.2722 22.2437 30.7943 25.4122 27.585 29.7C27.3463 30.0183 27.2438 30.4183 27.3001 30.8121C27.3563 31.206 27.5667 31.5613 27.885 31.8ZM25.5 45C25.5012 42.0249 26.0873 39.079 27.225 36.33C27.3336 35.9733 27.3055 35.5888 27.1461 35.2517C26.9867 34.9146 26.7074 34.649 26.3627 34.5066C26.018 34.3642 25.6327 34.3554 25.2818 34.4817C24.931 34.6081 24.6398 34.8606 24.465 35.19C23.1633 38.2965 22.4952 41.6318 22.5 45V52.5C22.5 52.8978 22.658 53.2794 22.9393 53.5607C23.2206 53.842 23.6022 54 24 54C24.3978 54 24.7794 53.842 25.0607 53.5607C25.342 53.2794 25.5 52.8978 25.5 52.5V45ZM10.5 28.5C10.8978 28.5 11.2794 28.342 11.5607 28.0607C11.842 27.7794 12 27.3978 12 27V12H27C27.3978 12 27.7794 11.842 28.0607 11.5607C28.342 11.2794 28.5 10.8978 28.5 10.5C28.5 10.1022 28.342 9.72064 28.0607 9.43934C27.7794 9.15804 27.3978 9 27 9H10.5C10.1022 9 9.72064 9.15804 9.43934 9.43934C9.15804 9.72064 9 10.1022 9 10.5V27C9 27.3978 9.15804 27.7794 9.43934 28.0607C9.72064 28.342 10.1022 28.5 10.5 28.5ZM85.5 9H69C68.6022 9 68.2206 9.15804 67.9393 9.43934C67.658 9.72064 67.5 10.1022 67.5 10.5C67.5 10.8978 67.658 11.2794 67.9393 11.5607C68.2206 11.842 68.6022 12 69 12H84V27C84 27.3978 84.158 27.7794 84.4393 28.0607C84.7206 28.342 85.1022 28.5 85.5 28.5C85.8978 28.5 86.2794 28.342 86.5607 28.0607C86.842 27.7794 87 27.3978 87 27V10.5C87 10.1022 86.842 9.72064 86.5607 9.43934C86.2794 9.15804 85.8978 9 85.5 9ZM85.5 67.5C85.1022 67.5 84.7206 67.658 84.4393 67.9393C84.158 68.2206 84 68.6022 84 69V84H69C68.6022 84 68.2206 84.158 67.9393 84.4393C67.658 84.7206 67.5 85.1022 67.5 85.5C67.5 85.8978 67.658 86.2794 67.9393 86.5607C68.2206 86.842 68.6022 87 69 87H85.5C85.8978 87 86.2794 86.842 86.5607 86.5607C86.842 86.2794 87 85.8978 87 85.5V69C87 68.6022 86.842 68.2206 86.5607 67.9393C86.2794 67.658 85.8978 67.5 85.5 67.5ZM27 84H12V69C12 68.6022 11.842 68.2206 11.5607 67.9393C11.2794 67.658 10.8978 67.5 10.5 67.5C10.1022 67.5 9.72064 67.658 9.43934 67.9393C9.15804 68.2206 9 68.6022 9 69V85.5C9 85.8978 9.15804 86.2794 9.43934 86.5607C9.72064 86.842 10.1022 87 10.5 87H27C27.3978 87 27.7794 86.842 28.0607 86.5607C28.342 86.2794 28.5 85.8978 28.5 85.5C28.5 85.1022 28.342 84.7206 28.0607 84.4393C27.7794 84.158 27.3978 84 27 84Z" fill="#15211F" fill-opacity="0.4"/>
</svg>