<svg xmlns="http://www.w3.org/2000/svg" width="24" height="24" viewBox="0 0 24 24" fill="none">
  <g clip-path="url(#clip0_217_968)">
    <path d="M9.17392 12.5653L7.76767 5.53397C7.7358 5.37458 7.64969 5.23116 7.52399 5.12811C7.39829 5.02506 7.24077 4.96875 7.07823 4.96875H5.67198C5.50944 4.96875 5.35192 5.02506 5.22622 5.12811C5.10052 5.23116 5.01441 5.37458 4.98254 5.53397L3.57629 12.5652C3.50012 12.946 3.74711 13.3164 4.12787 13.3926C4.50864 13.4687 4.87909 13.2218 4.95522 12.841L5.40465 10.5938H7.34556L7.795 12.841C7.87117 13.222 8.24176 13.4688 8.62234 13.3926C9.00311 13.3164 9.25009 12.946 9.17392 12.5653ZM5.6859 9.1875L6.2484 6.375H6.50181L7.06431 9.1875H5.6859ZM20.4376 10.5938H18.3282V9.89062C18.3282 9.50231 18.0134 9.1875 17.6251 9.1875C17.2368 9.1875 16.922 9.50231 16.922 9.89062V10.5938H14.8126C14.4243 10.5938 14.1095 10.9086 14.1095 11.2969C14.1095 11.6852 14.4243 12 14.8126 12H14.9828C15.3834 13.2943 15.9866 14.2878 16.6503 15.0839C16.1101 15.5781 15.5635 15.9833 15.0765 16.3728C14.7733 16.6154 14.7241 17.0579 14.9667 17.3611C15.2095 17.6645 15.652 17.7134 15.955 17.4709C16.4447 17.0791 17.0316 16.6438 17.6251 16.0991C18.2191 16.6442 18.8071 17.0803 19.2952 17.4709C19.5985 17.7135 20.041 17.6643 20.2835 17.3611C20.5261 17.0579 20.4769 16.6154 20.1737 16.3728C19.688 15.9842 19.1407 15.5785 18.5999 15.0839C19.2636 14.2878 19.8668 13.2943 20.2675 12H20.4376C20.8259 12 21.1407 11.6852 21.1407 11.2969C21.1407 10.9086 20.8259 10.5938 20.4376 10.5938ZM17.6251 14.0505C17.1763 13.4871 16.7725 12.8146 16.4681 11.9953H18.7821C18.4777 12.8146 18.0739 13.4871 17.6251 14.0505Z" fill="#E31D35"/>
    <path d="M21.8906 4.26562H11.7468L11.4454 1.84772C11.3138 0.794344 10.4139 0 9.35236 0H2.10938C0.946266 0 0 0.946266 0 2.10938V17.625C0 18.7881 0.946266 19.7344 2.10938 19.7344H8.03827L8.33583 22.1523C8.46727 23.2035 9.36708 24 10.4289 24H21.8906C23.0537 24 24 23.0537 24 21.8906V6.375C24 5.21189 23.0537 4.26562 21.8906 4.26562ZM2.10938 18.3281C1.72167 18.3281 1.40625 18.0127 1.40625 17.625V2.10938C1.40625 1.72167 1.72167 1.40625 2.10938 1.40625H9.35236C9.70622 1.40625 10.0062 1.671 10.05 2.02191L12.0827 18.3281H2.10938ZM9.69019 21.6445L9.45511 19.7344H11.3415L9.69019 21.6445ZM22.5938 21.8906C22.5938 22.2783 22.2783 22.5938 21.8906 22.5938H10.7285L13.4052 19.4975C13.4727 19.4215 13.5228 19.3317 13.5522 19.2344C13.5816 19.1371 13.5895 19.0346 13.5753 18.9339L11.9221 5.67188H21.8906C22.2783 5.67188 22.5938 5.9873 22.5938 6.375V21.8906Z" fill="#E31D35"/>
  </g>
  <defs>
    <clipPath id="clip0_217_968">
      <rect width="24" height="24" fill="white"/>
    </clipPath>
  </defs>
</svg>