<svg xmlns="http://www.w3.org/2000/svg" width="22" height="22" viewBox="0 0 22 22" fill="none">
  <g clip-path="url(#clip0_449_1453)">
    <path d="M20.9028 18.9884H6.1915C6.04734 18.9884 5.90459 18.96 5.77141 18.9048C5.63822 18.8496 5.51721 18.7688 5.41527 18.6668C5.31334 18.5649 5.23248 18.4439 5.17731 18.3107C5.12214 18.1775 5.09375 18.0348 5.09375 17.8906C5.09375 17.7465 5.12214 17.6037 5.17731 17.4705C5.23248 17.3373 5.31334 17.2163 5.41527 17.1144C5.51721 17.0125 5.63822 16.9316 5.77141 16.8764C5.90459 16.8213 6.04734 16.7929 6.1915 16.7929H20.9024C21.1936 16.7928 21.4728 16.9084 21.6787 17.1143C21.8846 17.3201 22.0003 17.5993 22.0004 17.8904C22.0004 18.1816 21.8848 18.4608 21.679 18.6667C21.4731 18.8726 21.194 18.9883 20.9028 18.9884ZM20.9028 12.0978H6.1915C5.90036 12.0978 5.62114 11.9821 5.41527 11.7763C5.20941 11.5704 5.09375 11.2912 5.09375 11C5.09375 10.7089 5.20941 10.4297 5.41527 10.2238C5.62114 10.0179 5.90036 9.90229 6.1915 9.90229H20.9024C21.1936 9.90225 21.4728 10.0179 21.6787 10.2237C21.8846 10.4295 22.0003 10.7087 22.0004 10.9999C22.0004 11.291 21.8848 11.5702 21.679 11.7761C21.4731 11.982 21.194 12.0977 20.9028 12.0978ZM20.9028 5.20722H6.1915C6.04734 5.20722 5.90459 5.17882 5.77141 5.12366C5.63822 5.06849 5.51721 4.98763 5.41527 4.88569C5.31334 4.78376 5.23248 4.66274 5.17731 4.52956C5.12214 4.39637 5.09375 4.25363 5.09375 4.10947C5.09375 3.96531 5.12214 3.82256 5.17731 3.68938C5.23248 3.55619 5.31334 3.43518 5.41527 3.33324C5.51721 3.23131 5.63822 3.15045 5.77141 3.09528C5.90459 3.04011 6.04734 3.01172 6.1915 3.01172H20.9024C21.1936 3.01167 21.4728 3.12728 21.6787 3.33311C21.8846 3.53895 22.0003 3.81814 22.0004 4.10929C22.0004 4.40043 21.8848 4.67966 21.679 4.88557C21.4731 5.09147 21.194 5.20717 20.9028 5.20722Z" fill="#E31D35"/>
    <path d="M1.47428 5.66877C2.2885 5.66877 2.94856 5.00871 2.94856 4.19449C2.94856 3.38027 2.2885 2.72021 1.47428 2.72021C0.660056 2.72021 0 3.38027 0 4.19449C0 5.00871 0.660056 5.66877 1.47428 5.66877Z" fill="#E31D35"/>
    <path d="M1.47428 12.4744C2.2885 12.4744 2.94856 11.8144 2.94856 11.0002C2.94856 10.1859 2.2885 9.52588 1.47428 9.52588C0.660056 9.52588 0 10.1859 0 11.0002C0 11.8144 0.660056 12.4744 1.47428 12.4744Z" fill="#E31D35"/>
    <path d="M1.47428 19.2801C2.2885 19.2801 2.94856 18.62 2.94856 17.8058C2.94856 16.9916 2.2885 16.3315 1.47428 16.3315C0.660056 16.3315 0 16.9916 0 17.8058C0 18.62 0.660056 19.2801 1.47428 19.2801Z" fill="#E31D35"/>
  </g>
  <defs>
    <clipPath id="clip0_449_1453">
      <rect width="22" height="22" fill="white"/>
    </clipPath>
  </defs>
</svg>