<svg width="16" height="16" viewBox="0 0 16 16" fill="none" xmlns="http://www.w3.org/2000/svg">
<g id="done-all">
<g id="Union">
<path d="M11.8051 5.13807C12.0654 4.87772 12.0654 4.45561 11.8051 4.19526C11.5447 3.93491 11.1226 3.93491 10.8623 4.19526L4.66699 10.3905L1.80506 7.5286C1.54471 7.26825 1.1226 7.26825 0.862254 7.5286C0.601905 7.78894 0.601905 8.21106 0.862254 8.4714L4.19559 11.8047C4.45594 12.0651 4.87805 12.0651 5.1384 11.8047L11.8051 5.13807Z" fill="#E94057"/>
<path d="M15.1384 5.13807C15.3987 4.87772 15.3987 4.45561 15.1384 4.19526C14.878 3.93491 14.4559 3.93491 14.1956 4.19526L7.99718 10.3937C7.7355 10.1862 7.35409 10.2034 7.11225 10.4453C6.8519 10.7056 6.8519 11.1277 7.11225 11.3881L7.52892 11.8047C7.78927 12.0651 8.21138 12.0651 8.47173 11.8047L15.1384 5.13807Z" fill="#E94057"/>
<path d="M5.55506 7.94526L5.1384 7.5286C4.87805 7.26825 4.45594 7.26825 4.19559 7.5286C3.93524 7.78894 3.93524 8.21106 4.19559 8.4714L4.61225 8.88807C4.8726 9.14842 5.29471 9.14842 5.55506 8.88807C5.81541 8.62772 5.81541 8.20561 5.55506 7.94526Z" fill="#E94057"/>
</g>
</g>
</svg>
