<svg width="24" height="24" viewBox="0 0 24 24" fill="none" xmlns="http://www.w3.org/2000/svg">
<g id="more-one">
<path id="Vector" d="M18 13.25C17.3096 13.25 16.75 12.6904 16.75 12C16.75 11.3096 17.3096 10.75 18 10.75C18.6904 10.75 19.25 11.3096 19.25 12C19.25 12.6904 18.6904 13.25 18 13.25Z" fill="#E31D35" stroke="#E31D35" stroke-width="0.5"/>
<path id="Vector_2" d="M12 13.25C11.3096 13.25 10.75 12.6904 10.75 12C10.75 11.3096 11.3096 10.75 12 10.75C12.6904 10.75 13.25 11.3096 13.25 12C13.25 12.6904 12.6904 13.25 12 13.25Z" fill="#E31D35" stroke="#E31D35" stroke-width="0.5"/>
<path id="Vector_3" d="M6.5 13.25C5.80964 13.25 5.25 12.6904 5.25 12C5.25 11.3096 5.80964 10.75 6.5 10.75C7.19036 10.75 7.75 11.3096 7.75 12C7.75 12.6904 7.19036 13.25 6.5 13.25Z" fill="#E31D35" stroke="#E31D35" stroke-width="0.5"/>
</g>
</svg>
