<svg xmlns="http://www.w3.org/2000/svg" width="12" height="11" viewBox="0 0 12 11" fill="none">
  <g clip-path="url(#clip0_1011_2783)">
    <path d="M7.67538 1.84777L1.62306 7.90055C1.59259 7.93111 1.57087 7.96928 1.56017 8.01109L0.889303 10.7037C0.879436 10.7437 0.880041 10.7855 0.891059 10.8252C0.902076 10.8648 0.923135 10.901 0.952199 10.9301C0.996843 10.9746 1.05729 10.9996 1.12032 10.9997C1.13976 10.9997 1.15913 10.9973 1.17799 10.9925L3.87062 10.3216C3.91249 10.3111 3.95071 10.2893 3.98118 10.2588L10.0341 4.2064L7.67538 1.84777ZM11.5335 1.02247L10.8598 0.348773C10.4095 -0.101507 9.62468 -0.10106 9.17491 0.348773L8.34964 1.17406L10.7082 3.53261L11.5335 2.70734C11.7584 2.48251 11.8823 2.18324 11.8823 1.86496C11.8823 1.54668 11.7584 1.24741 11.5335 1.02247Z" fill="white"/>
  </g>
  <defs>
    <clipPath id="clip0_1011_2783">
      <rect width="11" height="11" fill="white" transform="translate(0.882324)"/>
    </clipPath>
  </defs>
</svg>