<svg xmlns="http://www.w3.org/2000/svg" width="24" height="24" viewBox="0 0 24 24" fill="none">
  <path d="M23.9685 22.9455L22.9293 19.2006C23.6311 17.9964 24.001 16.6178 23.999 15.2132C23.999 10.9319 20.6189 7.44851 16.4637 7.44851C15.9826 7.44851 15.5177 7.51141 15.0623 7.60079C14.9764 3.39569 11.6363 0 7.53579 0C3.38063 0 0.000445043 3.48342 0.000445043 7.76466C0.000445043 9.17822 0.369061 10.5479 1.06935 11.7513L0.0309623 15.4962C-0.0129575 15.6545 -0.010095 15.8226 0.0391838 15.9792C0.0884627 16.1357 0.18192 16.2736 0.307611 16.3751C0.433303 16.4767 0.585521 16.5373 0.744811 16.5492C0.904101 16.5612 1.06323 16.5239 1.20186 16.4422L4.16043 14.7C5.20746 15.2437 6.36338 15.5274 7.53579 15.5285C8.01524 15.5285 8.48263 15.4772 8.93718 15.3886C9.02953 19.5879 12.3664 22.977 16.4637 22.977C17.6361 22.9755 18.7919 22.6918 19.8391 22.1486L22.7976 23.8899C22.9362 23.972 23.0955 24.0096 23.2549 23.9979C23.4144 23.9861 23.5669 23.9255 23.6927 23.8239C23.8185 23.7222 23.912 23.5841 23.9612 23.4273C24.0103 23.2706 24.0129 23.1022 23.9685 22.9439V22.9455ZM7.53579 13.8749C6.48769 13.8731 5.4588 13.5849 4.55394 13.0399C4.43219 12.9666 4.29383 12.9276 4.15283 12.9271C4.01182 12.9265 3.87317 12.9642 3.75085 13.0365L2.11738 13.9982L2.71327 11.8506C2.77751 11.6164 2.73897 11.3648 2.60806 11.162C1.95367 10.1578 1.60497 8.97514 1.60662 7.76549C1.60662 4.39628 4.26643 1.65605 7.53579 1.65605C10.8052 1.65605 13.4642 4.3971 13.4642 7.76549C13.4642 11.1339 10.8043 13.8749 7.53579 13.8749ZM21.2854 19.2991L21.8813 21.4467L20.2478 20.4851C20.1256 20.4126 19.9869 20.3747 19.8459 20.3753C19.7048 20.3759 19.5664 20.4149 19.4447 20.4884C18.5403 21.0336 17.5116 21.3218 16.4637 21.3234C13.1943 21.3234 10.5345 18.5824 10.5345 15.214C10.5345 15.0998 10.5466 14.9881 10.553 14.8755C12.7607 13.8757 14.4206 11.8191 14.9161 9.32802C15.4196 9.18226 15.9399 9.1071 16.4629 9.10456C19.7322 9.10456 22.3921 11.8456 22.3921 15.214C22.3935 16.4236 22.0448 17.6062 21.3906 18.6105C21.3256 18.7105 21.2825 18.8239 21.2641 18.9428C21.2458 19.0617 21.2536 19.1833 21.2854 19.2991ZM17.6033 12.0889C17.5416 11.9398 17.4388 11.8127 17.3075 11.7233C17.1763 11.634 17.0225 11.5863 16.8652 11.5863C16.708 11.5863 16.5541 11.634 16.4229 11.7233C16.2917 11.8127 16.1889 11.9398 16.1272 12.0889L13.7179 17.8822C13.6722 17.9827 13.6465 18.0917 13.6425 18.2026C13.6384 18.3136 13.656 18.4242 13.6943 18.528C13.7326 18.6317 13.7908 18.7265 13.8654 18.8066C13.9399 18.8867 14.0294 18.9506 14.1284 18.9944C14.2274 19.0381 14.3339 19.0609 14.4416 19.0614C14.5494 19.0618 14.6561 19.04 14.7554 18.997C14.8548 18.9541 14.9447 18.891 15.02 18.8116C15.0952 18.7321 15.1541 18.6378 15.1932 18.5344L15.6727 17.3807H18.0554L18.5348 18.5344C18.5764 18.6342 18.6366 18.7247 18.7121 18.8006C18.7876 18.8764 18.8769 18.9362 18.9748 18.9765C19.0728 19.0167 19.1774 19.0367 19.2829 19.0353C19.3883 19.0338 19.4924 19.011 19.5893 18.968C19.6863 18.9253 19.7741 18.8633 19.8478 18.7855C19.9215 18.7077 19.9796 18.6157 20.0188 18.5148C20.0579 18.4139 20.0774 18.306 20.076 18.1973C20.0747 18.0886 20.0526 17.9813 20.0109 17.8814L17.6017 12.0881L17.6033 12.0889ZM16.3625 15.7255L16.8652 14.5163L17.368 15.7255H16.3617H16.3625ZM7.22821 3.31045C5.01411 3.31045 3.21279 5.16678 3.21279 7.44851C3.21279 9.73024 5.01411 11.5866 7.22821 11.5866C8.01501 11.5864 8.7842 11.3466 9.4391 10.8972L9.87277 11.3441C9.94718 11.4212 10.0356 11.4824 10.1331 11.5242C10.2305 11.5659 10.335 11.5874 10.4406 11.5874C10.5461 11.5874 10.6506 11.5659 10.748 11.5242C10.8455 11.4824 10.9339 11.4212 11.0083 11.3441C11.083 11.2673 11.1422 11.1761 11.1826 11.0757C11.223 10.9753 11.2438 10.8677 11.2438 10.759C11.2438 10.6503 11.223 10.5426 11.1826 10.4422C11.1422 10.3418 11.083 10.2506 11.0083 10.1738L10.5747 9.72693C11.0107 9.05202 11.2435 8.25934 11.2436 7.44851C11.2436 5.16678 9.44232 3.31045 7.22821 3.31045ZM9.39574 8.51199L8.59908 7.691C8.52452 7.61416 8.436 7.55321 8.33858 7.51162C8.24116 7.47004 8.13674 7.44863 8.0313 7.44863C7.92585 7.44863 7.82144 7.47004 7.72402 7.51162C7.6266 7.55321 7.53808 7.61416 7.46352 7.691C7.38895 7.76784 7.32981 7.85906 7.28945 7.95946C7.2491 8.05985 7.22833 8.16745 7.22833 8.27612C7.22833 8.38479 7.2491 8.49239 7.28945 8.59279C7.32981 8.69318 7.38895 8.7844 7.46352 8.86124L8.26018 9.68223C7.93869 9.84404 7.58598 9.92918 7.22821 9.93135C5.89991 9.93135 4.81896 8.81738 4.81896 7.44851C4.81896 6.07964 5.89991 4.96567 7.22821 4.96567C8.55651 4.96567 9.63747 6.07964 9.63747 7.44851C9.63747 7.83087 9.54672 8.18839 9.39574 8.51199Z" fill="#E31D35"/>
</svg>