<svg width="20" height="20" viewBox="0 0 20 20" fill="none" xmlns="http://www.w3.org/2000/svg">
<g id="search">
<path id="Vector (Stroke)" fill-rule="evenodd" clip-rule="evenodd" d="M0.833496 8.74992C0.833496 4.37768 4.37793 0.833252 8.75016 0.833252C13.1224 0.833252 16.6668 4.37768 16.6668 8.74992C16.6668 10.6359 16.0074 12.3678 14.9064 13.7277L17.9674 16.7886C18.2928 17.1141 18.2928 17.6417 17.9674 17.9671C17.6419 18.2926 17.1143 18.2926 16.7889 17.9671L13.7279 14.9062C12.368 16.0071 10.6361 16.6666 8.75016 16.6666C4.37793 16.6666 0.833496 13.1222 0.833496 8.74992ZM8.75016 2.49992C5.2984 2.49992 2.50016 5.29816 2.50016 8.74992C2.50016 12.2017 5.2984 14.9999 8.75016 14.9999C12.2019 14.9999 15.0002 12.2017 15.0002 8.74992C15.0002 5.29816 12.2019 2.49992 8.75016 2.49992ZM5.80389 5.38693C6.55702 4.63385 7.59982 4.16659 8.75016 4.16659C9.9005 4.16659 10.9433 4.63385 11.6964 5.38695C12.0219 5.71239 12.0219 6.24003 11.6964 6.56547C11.371 6.8909 10.8433 6.8909 10.5179 6.56547C10.0646 6.11215 9.44074 5.83325 8.75016 5.83325C8.05959 5.83325 7.43572 6.11215 6.98236 6.56549C6.65691 6.89091 6.12927 6.89089 5.80384 6.56545C5.47842 6.24 5.47844 5.71236 5.80389 5.38693Z" fill="#15211F"/>
</g>
</svg>
