<svg xmlns="http://www.w3.org/2000/svg" width="24" height="24" viewBox="0 0 24 24" fill="none">
  <g clip-path="url(#clip0_214_2406)">
    <path d="M22.0919 3.08391L12.2861 0.0454714C12.093 -0.0149974 11.9064 -0.0149974 11.7175 0.0450026L1.90797 3.08391C1.50484 3.20953 1.23438 3.5775 1.23438 3.99985V5.66625C1.23438 9.41532 1.23437 13.6645 3.08172 17.2425C3.98687 18.9961 5.17891 20.3888 6.72672 21.5006C7.98484 22.4044 9.51062 23.1572 11.6758 23.9428C11.7836 23.9813 11.8919 24.0005 12.0006 24.0005C12.1098 24.0005 12.2186 23.9808 12.3269 23.9419C14.4902 23.1577 16.0155 22.4053 17.2731 21.5025C18.8214 20.3911 20.0144 18.9975 20.9205 17.2425C22.7669 13.6664 22.7669 9.41625 22.7669 5.66625V3.99985C22.7664 3.57703 22.4955 3.2086 22.0919 3.08391ZM22.0169 5.66578C22.0169 9.33047 22.0169 13.4845 20.2544 16.8984C18.4713 20.3527 15.8012 21.8845 12.0719 23.2364C12.0203 23.2547 11.98 23.2547 11.9294 23.2369C8.19953 21.8836 5.52953 20.3513 3.74734 16.8984C1.98344 13.4817 1.98344 9.32953 1.98344 5.66578V3.99985C1.98344 3.90469 2.03969 3.82782 2.13016 3.79969L11.9416 0.759846C11.9631 0.752815 11.9814 0.749534 12.0002 0.749534C12.0194 0.749534 12.0391 0.753284 12.0625 0.760784L21.8697 3.79969C21.9616 3.82828 22.0164 3.90328 22.0164 3.99985V5.66578H22.0169ZM19.6591 5.30813L12.1117 2.96813C12.0395 2.94563 11.9622 2.94563 11.89 2.96813L4.34266 5.30813C4.26624 5.33175 4.1994 5.37922 4.15191 5.44357C4.10442 5.50793 4.07879 5.5858 4.07875 5.66578C4.07875 9.28547 4.15469 12.2564 5.10812 14.8055C5.64156 16.2309 6.40703 17.4066 7.44906 18.3998C8.59047 19.4883 10.038 20.3367 11.8745 20.9934C11.9153 21.008 11.958 21.0155 12.0006 21.0155C12.0433 21.0155 12.0859 21.008 12.1267 20.9934C13.9628 20.3367 15.4103 19.4883 16.5517 18.3998C17.5933 17.4066 18.3592 16.2309 18.8927 14.8055C19.8466 12.2559 19.9225 9.285 19.9225 5.66578C19.9227 5.58581 19.8972 5.50788 19.8498 5.44348C19.8024 5.37909 19.7355 5.33164 19.6591 5.30813ZM12.0006 20.242C4.93141 17.6503 4.82969 12.2325 4.82828 5.94188L12.0006 3.71813L19.173 5.94188C19.172 12.2325 19.0703 17.6498 12.0006 20.242ZM9.83969 6.89438C9.26078 7.47328 8.94203 8.24016 8.94203 9.05438V10.08H8.50609C7.98859 10.08 7.56812 10.5009 7.56812 11.018V15.5691C7.56812 16.0866 7.98906 16.507 8.50609 16.507H15.4938C16.0117 16.507 16.4331 16.0861 16.4331 15.5691V11.018C16.4331 10.5005 16.0117 10.08 15.4938 10.08H15.0578V9.05438C15.0578 8.24063 14.7391 7.47375 14.1602 6.89438C13.5813 6.31547 12.8144 5.99672 12.0006 5.99672C11.1859 5.99672 10.4186 6.31547 9.83969 6.89438ZM15.6841 11.018V15.5691C15.6841 15.6713 15.5969 15.7575 15.4942 15.7575H8.50609C8.40391 15.7575 8.31766 15.6713 8.31766 15.5691V11.018C8.31766 10.9158 8.40391 10.8295 8.50609 10.8295H15.4938C15.5969 10.8295 15.6841 10.9158 15.6841 11.018ZM13.4425 10.08H10.5578V9.05438C10.5578 8.67188 10.7083 8.31094 10.982 8.03719C11.2558 7.76344 11.6177 7.61297 12.0006 7.61297C12.3831 7.61297 12.7441 7.76344 13.0178 8.03719C13.2916 8.31094 13.442 8.67188 13.442 9.05438V10.08H13.4425ZM14.3088 9.05438V10.08H14.192V9.05438C14.192 8.47172 13.9633 7.92235 13.548 7.50703C13.1327 7.09172 12.5833 6.86297 12.0006 6.86297C11.417 6.86297 10.8672 7.09172 10.4519 7.50703C10.0366 7.92235 9.80781 8.47172 9.80781 9.05438V10.08H9.69109V9.05438C9.69109 8.44078 9.93203 7.86188 10.3694 7.42453C10.8067 6.98719 11.3861 6.74625 12.0006 6.74625C12.6142 6.74625 13.1931 6.98719 13.6305 7.42453C14.0678 7.86188 14.3088 8.44078 14.3088 9.05438ZM10.7158 14.3255C10.7158 14.5327 10.548 14.7 10.3412 14.7H9.07891C9.07187 14.7 9.06484 14.6995 9.05734 14.6991C9.04891 14.6995 9.04094 14.7 9.0325 14.7C8.92703 14.7 8.8225 14.6559 8.74844 14.5697C8.71634 14.5324 8.69191 14.4891 8.67653 14.4424C8.66116 14.3957 8.65516 14.3464 8.65886 14.2973C8.66256 14.2482 8.67589 14.2004 8.6981 14.1565C8.72031 14.1126 8.75095 14.0735 8.78828 14.0414C9.12812 13.7489 9.46844 13.455 9.80828 13.1611L9.87156 13.1063C9.9325 13.0538 9.96625 12.9881 9.96625 12.9211C9.96625 12.8541 9.93391 12.7908 9.87297 12.7388C9.71406 12.6009 9.43609 12.6014 9.27719 12.7383C9.12063 12.8733 8.88391 12.8559 8.74891 12.6994C8.61391 12.5428 8.63125 12.3061 8.78781 12.1711C9.22984 11.79 9.92125 11.79 10.3619 12.1716C10.5859 12.3638 10.7153 12.637 10.7153 12.9206C10.7158 13.2047 10.5864 13.4794 10.3609 13.6739L10.2977 13.7283C10.2119 13.8023 10.1256 13.8764 10.0398 13.9505H10.3408C10.548 13.9505 10.7158 14.1183 10.7158 14.3255ZM12.8673 13.2197C12.8673 13.4269 12.6995 13.5942 12.4928 13.5942H11.7648V14.325C11.7648 14.5322 11.597 14.6995 11.3903 14.6995C11.1836 14.6995 11.0158 14.5317 11.0158 14.325V12.2616C11.0158 12.0544 11.1836 11.887 11.3903 11.887H12.4933C12.7005 11.887 12.8678 12.0548 12.8678 12.2616C12.8678 12.4683 12.7 12.6361 12.4933 12.6361H11.7653V12.8447H12.4933C12.6995 12.8452 12.8673 13.013 12.8673 13.2197ZM14.0734 11.887C13.9239 11.887 13.7889 11.9756 13.7294 12.113L12.8364 14.1764C12.7544 14.3663 12.8416 14.587 13.0314 14.6691C13.2212 14.7516 13.442 14.6639 13.5241 14.4741L13.615 14.2641C13.6506 14.2753 13.6886 14.2814 13.7275 14.2814H14.4662C14.4906 14.2814 14.5141 14.2791 14.537 14.2744L14.6238 14.4741C14.6528 14.5412 14.7009 14.5983 14.762 14.6385C14.8231 14.6786 14.8947 14.7 14.9678 14.7C15.0299 14.6999 15.091 14.6844 15.1456 14.6548C15.2002 14.6253 15.2466 14.5827 15.2807 14.5308C15.3147 14.4789 15.3354 14.4193 15.3407 14.3575C15.3461 14.2956 15.336 14.2334 15.3114 14.1764L14.417 12.113C14.3881 12.0458 14.3402 11.9886 14.2791 11.9485C14.218 11.9083 14.1465 11.887 14.0734 11.887ZM13.9323 13.5319L14.0739 13.2047L14.2159 13.5319H13.9323Z" fill="#E31D35"/>
  </g>
  <defs>
    <clipPath id="clip0_214_2406">
      <rect width="24" height="24" fill="white"/>
    </clipPath>
  </defs>
</svg>